<svg width="71" height="63" viewBox="0 0 71 63" fill="none" xmlns="http://www.w3.org/2000/svg">
<path d="M55.1028 35.07L42.0472 45.5H24.5275V42H38.771C39.0879 41.9998 39.3988 41.9138 39.6707 41.7511C39.9425 41.5884 40.1651 41.3551 40.3146 41.076C40.4642 40.7969 40.5352 40.4826 40.5201 40.1664C40.5049 39.8502 40.4042 39.544 40.2286 39.2805L37.1172 34.6185C36.4789 33.6588 35.6127 32.8719 34.596 32.3277C33.5793 31.7836 32.4436 31.4992 31.2901 31.5H3.50393C2.57463 31.5 1.68339 31.8687 1.02628 32.5251C0.369163 33.1815 0 34.0717 0 35V56C0 57.8565 0.738326 59.637 2.05256 60.9497C3.36679 62.2625 5.14926 63 7.00786 63H40.7823C42.2806 63.0003 43.7617 62.6807 45.1262 62.0626C46.4908 61.4445 47.7073 60.5421 48.6942 59.416L70.0786 35L64.9909 33.306C63.3264 32.7518 61.5494 32.6228 59.8221 32.931C58.0949 33.2391 56.4724 33.9745 55.1028 35.07ZM60.4709 15.365C62.0511 13.7375 63.0287 11.487 63.0287 9.002C63.0287 6.517 62.0511 4.2665 60.4709 2.639C59.6717 1.80592 58.7122 1.14274 57.6501 0.689247C56.588 0.235758 55.445 0.00131823 54.2899 2.25457e-07C54.2899 2.25457e-07 49.931 -0.0105005 45.5511 4.501C41.1712 -0.0105005 36.8123 2.25457e-07 36.8123 2.25457e-07C35.6576 0.00146708 34.515 0.235631 33.4529 0.688476C32.3909 1.14132 31.4312 1.80354 30.6314 2.6355C29.0511 4.2665 28.0735 6.5135 28.0735 8.9985C28.0735 11.4835 29.0511 13.7375 30.6314 15.3615L45.5511 31.5L60.4709 15.365Z" fill="#BA3375"/>
</svg>
