<svg width="63" height="63" viewBox="0 0 63 63" fill="none" xmlns="http://www.w3.org/2000/svg">
<path fill-rule="evenodd" clip-rule="evenodd" d="M31.5022 2.08585L33.1986 0.870808C33.0053 0.601367 32.7506 0.381845 32.4556 0.230415C32.1607 0.0789843 31.8338 0 31.5022 0C31.1707 0 30.8438 0.0789843 30.5489 0.230415C30.2539 0.381845 29.9992 0.601367 29.8059 0.870808L31.5022 2.08585ZM31.5022 2.08585L29.8059 0.870808L29.7969 0.879808L29.7744 0.906809L29.7024 1.01481C29.2791 1.60835 28.8651 2.20844 28.4605 2.81488C27.4428 4.32981 26.4645 5.87088 25.5267 7.43654C24.4245 9.25318 23.4269 11.1313 22.5389 13.0617C21.7469 14.8393 21.054 16.8014 21.054 18.4529C21.054 21.2925 22.1339 24.0331 24.0823 26.0627C26.0351 28.0968 28.7034 29.2578 31.5022 29.2578C34.301 29.2578 36.9694 28.0968 38.9222 26.0627C40.8706 24.0331 41.9505 21.2925 41.9505 18.4574C41.9505 16.8014 41.2576 14.8393 40.4656 13.0572C39.5775 11.1268 38.58 9.24872 37.4778 7.43204C36.1651 5.24391 34.7723 3.10488 33.3021 1.01931L33.2301 0.906809L33.2076 0.879808L33.2031 0.875308L31.5022 2.09035V2.08585ZM0.00449968 23.0026V44.2703C0.00500938 46.6572 0.953488 48.9461 2.64131 50.6336L12.5001 60.4934V63H27.4975V50.0665C27.4978 48.7545 27.2396 47.4552 26.7378 46.243C26.236 45.0307 25.5003 43.9292 24.5727 43.0013L18.1022 36.5301L18.0842 36.5121C17.3716 35.9193 16.4578 35.6242 15.5332 35.6883C14.6085 35.7525 13.7442 36.1708 13.1202 36.8563C12.4963 37.5418 12.1608 38.4416 12.1835 39.3683C12.2063 40.295 12.5857 41.1773 13.2426 41.8313L17.3823 45.9714C17.5971 46.179 17.7685 46.4272 17.8865 46.7018C18.0044 46.9763 18.0664 47.2715 18.069 47.5703C18.0716 47.8691 18.0147 48.1654 17.9016 48.4419C17.7884 48.7184 17.6214 48.9696 17.4101 49.1809C17.1989 49.3922 16.9477 49.5592 16.6712 49.6724C16.3947 49.7855 16.0985 49.8424 15.7997 49.8398C15.501 49.8373 15.2058 49.7752 14.9313 49.6573C14.6568 49.5393 14.4085 49.3679 14.201 49.153L10.0613 45.0129C8.55526 43.505 7.70411 41.4643 7.69232 39.3331C7.68052 37.2019 8.50904 35.1519 9.99829 33.6275V22.9981C9.99829 21.6721 9.47159 20.4004 8.53407 19.4628C7.59655 18.5252 6.325 17.9984 4.99914 17.9984C3.67329 17.9984 2.40174 18.5252 1.46421 19.4628C0.526694 20.4004 0 21.6721 0 22.9981L0.00449968 23.0026ZM63 44.2703V23.0026C63 21.6766 62.4733 20.4049 61.5358 19.4673C60.5983 18.5297 59.3267 18.0029 58.0009 18.0029C56.675 18.0029 55.4035 18.5297 54.4659 19.4673C53.5284 20.4049 53.0017 21.6766 53.0017 23.0026V33.6275C54.4937 35.1523 55.3239 37.2042 55.3121 39.3376C55.3003 41.471 54.4475 43.5136 52.9387 45.0219L48.799 49.1575C48.3747 49.5674 47.8064 49.7942 47.2165 49.789C46.6266 49.7839 46.0623 49.5473 45.6451 49.1301C45.228 48.7129 44.9914 48.1486 44.9863 47.5586C44.9811 46.9686 45.2079 46.4003 45.6177 45.9759L49.7574 41.8358C50.4258 41.1839 50.8148 40.2978 50.8423 39.3645C50.8698 38.4313 50.5337 37.5238 49.9049 36.8337C49.2762 36.1436 48.4039 35.7247 47.4722 35.6655C46.5405 35.6064 45.6223 35.9115 44.9113 36.5166L44.8933 36.5346L38.4318 42.9968C37.5037 43.9252 36.7677 45.0275 36.2658 46.2406C35.764 47.4536 35.5061 48.7537 35.507 50.0665V63H50.4999V60.4979L60.3587 50.6336C61.1952 49.7984 61.8591 48.8065 62.3123 47.7147C62.7655 46.6229 62.9992 45.4525 63 44.2703Z" fill="#BA3375"/>
</svg>
